<?xml version="1.0" encoding="UTF-8"?>
<svg version="1.1" xmlns="http://www.w3.org/2000/svg" width="1024" height="1024">
<path d="M0 0 C1.84413117 -0.02029868 3.68822361 -0.04444359 5.53225708 -0.07223511 C9.38870283 -0.11228432 13.2399563 -0.09644851 17.09619141 -0.04248047 C21.03865583 0.00804723 24.96730673 -0.01965638 28.90869141 -0.12451172 C60.35058309 -0.96022661 60.35058309 -0.96022661 67.92285156 3.93734741 C72.00989908 8.28218165 73.91541476 13.16169871 75.46563721 18.85229492 C76.34697605 21.86485959 77.81063897 24.2712088 79.5234375 26.88671875 C79.99740967 27.68440674 80.47138184 28.48209473 80.9597168 29.30395508 C81.42933838 30.09310303 81.89895996 30.88225098 82.3828125 31.6953125 C87.25536942 39.91112695 92.05522469 48.1667378 96.8203125 56.4453125 C101.10957624 63.89655452 105.40270418 71.34480857 109.7578125 78.7578125 C110.13510498 79.40145752 110.51239746 80.04510254 110.90112305 80.70825195 C111.61043798 81.91218496 112.33007617 83.11010922 113.06103516 84.30102539 C114.1328125 86.1328125 114.1328125 86.1328125 115.18505859 88.33764648 C117.26932301 92.51593002 117.26932301 92.51593002 121.12646484 94.80957031 C123.61782575 95.04755424 126.00671399 95.03352936 128.5078125 94.9453125 C130.39330319 94.95775853 132.27875229 94.97890846 134.1640625 95.0078125 C135.14246094 95.018125 136.12085938 95.0284375 137.12890625 95.0390625 C176.30037438 96.26157906 214.22494157 112.86283577 242.1328125 140.1328125 C242.99390625 140.93203125 243.855 141.73125 244.7421875 142.5546875 C269.64342627 166.21859763 283.96819863 201.86632334 285.37109375 235.82421875 C286.15297388 270.04812904 275.85994214 302.81591152 255.1328125 330.1328125 C254.56949219 330.91785156 254.00617187 331.70289063 253.42578125 332.51171875 C241.8942933 347.89571283 227.20003404 360.72230934 211.1328125 371.1328125 C210.42801758 371.59123535 209.72322266 372.0496582 208.99707031 372.52197266 C198.24597789 379.40775577 187.008838 384.50930122 175.1328125 389.1328125 C173.94171875 389.61621094 172.750625 390.09960938 171.5234375 390.59765625 C162.55350611 394.06139736 153.34607859 396.02785865 143.89243603 397.64845467 C142.13321147 397.95722656 140.37770923 398.28865862 138.62846088 398.64968681 C127.21628262 400.77381753 115.73079681 400.39783775 104.16674805 400.35986328 C101.75106816 400.35929841 99.33538794 400.35961721 96.91970825 400.36074829 C91.06936137 400.36126068 85.21908067 400.35263689 79.36874887 400.33987297 C72.55446174 400.3255073 65.74018366 400.3225767 58.92588351 400.32029663 C46.77617732 400.31593178 34.62649817 400.30265571 22.47680664 400.28369141 C10.68253717 400.26530115 -1.11172493 400.25116009 -12.90600586 400.24267578 C-13.63440437 400.24215033 -14.36280288 400.24162489 -15.11327408 400.24108352 C-18.76785324 400.23847323 -22.42243245 400.23594586 -26.0770117 400.23345971 C-56.34042298 400.21276494 -86.60380147 400.17742272 -116.8671875 400.1328125 C-117.32227692 401.29353523 -117.32227692 401.29353523 -117.78656006 402.47770691 C-118.89537658 405.20207318 -120.19462291 407.68119541 -121.6328125 410.24609375 C-122.18573975 411.23407959 -122.73866699 412.22206543 -123.30834961 413.23999023 C-123.90526611 414.29774658 -124.50218262 415.35550293 -125.1171875 416.4453125 C-125.74052979 417.55398682 -126.36387207 418.66266113 -127.00610352 419.80493164 C-132.34680189 429.27378385 -137.80977058 438.66913163 -143.30859375 448.046875 C-146.98830024 454.32623069 -150.61550525 460.63523615 -154.2421875 466.9453125 C-160.12354597 477.16761881 -166.10546292 487.32616798 -172.13452148 497.46166992 C-176.71138592 505.1612111 -181.23114045 512.89108568 -185.68261719 520.66381836 C-188.76565088 526.03127588 -188.76565088 526.03127588 -189.8671875 527.1328125 C-191.6261218 527.22913295 -193.38895909 527.2546876 -195.15052795 527.25306702 C-196.29622757 527.25444168 -197.44192719 527.25581635 -198.62234497 527.25723267 C-199.89045013 527.25363739 -201.1585553 527.25004211 -202.46508789 527.24633789 C-203.80511981 527.24605602 -205.14515189 527.24621375 -206.48518372 527.2467804 C-210.13378188 527.24706837 -213.78234745 527.2411717 -217.43093801 527.23420644 C-221.23996266 527.22797284 -225.048988 527.2273691 -228.85801697 527.22618103 C-236.07576504 527.22306773 -243.29349804 527.21485436 -250.51123947 527.20483154 C-258.72634007 527.19367036 -266.94144138 527.18815994 -275.15654767 527.18313611 C-292.06010301 527.17267175 -308.96364366 527.15507233 -325.8671875 527.1328125 C-324.4166254 523.40557533 -322.76103798 520.08458844 -320.69921875 516.65234375 C-319.74172729 515.04975708 -319.74172729 515.04975708 -318.76489258 513.41479492 C-318.42551666 512.85021576 -318.08614075 512.2856366 -317.73648071 511.70394897 C-315.91771587 508.67729612 -314.11132577 505.64327698 -312.3046875 502.609375 C-311.74809196 501.67532082 -311.74809196 501.67532082 -311.18025208 500.72239685 C-307.45276594 494.45657527 -303.81003732 488.14284254 -300.1796875 481.8203125 C-295.62531868 473.89418137 -291.03324405 465.99373028 -286.3671875 458.1328125 C-281.01237559 449.10911518 -275.75387928 440.03245947 -270.51904297 430.9387207 C-265.22769219 421.74901502 -259.90157098 412.5803348 -254.54296875 403.4296875 C-252.24449348 399.50236654 -249.96267941 395.56610209 -247.69552612 391.6206665 C-237.19536941 373.35579348 -226.57317455 356.36401337 -211.8671875 341.1328125 C-211.00609375 340.20855469 -210.145 339.28429687 -209.2578125 338.33203125 C-185.89431391 313.89712962 -153.43507177 299.2901067 -120.8671875 292.1328125 C-120.07090061 291.95406145 -119.27461372 291.7753104 -118.45419693 291.59114265 C-108.50587223 289.64461678 -98.59342774 289.86646568 -88.50292969 289.90576172 C-86.46177679 289.90632671 -84.42062349 289.90600756 -82.37947083 289.90487671 C-76.86999045 289.90430563 -71.36059813 289.9160202 -65.85113811 289.93002462 C-60.08161052 289.9425729 -54.31208064 289.9437057 -48.5425415 289.94607544 C-37.63126226 289.9522782 -26.72002336 289.96867267 -15.80876184 289.98877442 C-3.38067245 290.01117097 9.04741891 290.02213628 21.47552347 290.03216529 C47.02797546 290.05304 72.58039172 290.08819248 98.1328125 290.1328125 C97.52567917 289.12318954 96.91854584 288.11356659 96.29301453 287.073349 C95.48267313 285.72461327 94.67235645 284.37586268 93.86206055 283.02709961 C93.4635363 282.36452904 93.06501205 281.70195847 92.65441132 281.01931 C89.01105628 274.95286849 85.46581703 268.833926 81.9453125 262.6953125 C77.03516346 254.15829252 72.10332208 245.6348328 67.1328125 237.1328125 C62.27165033 228.81537294 57.44136001 220.48077849 52.6328125 212.1328125 C46.57395082 201.61491864 40.47502567 191.121025 34.3515625 180.640625 C33.83335937 179.75149414 33.31515625 178.86236328 32.78125 177.94628906 C31.58637315 175.90692874 30.38200667 173.87311886 29.171875 171.84277344 C28.20894531 170.21903809 28.20894531 170.21903809 27.2265625 168.5625 C26.63552734 167.57233887 26.04449219 166.58217773 25.43554688 165.56201172 C24.1328125 163.1328125 24.1328125 163.1328125 24.1328125 161.1328125 C23.4728125 161.1328125 22.8128125 161.1328125 22.1328125 161.1328125 C21.72337402 162.21212036 21.72337402 162.21212036 21.30566406 163.31323242 C20.15220479 166.0861927 18.83542563 168.6276062 17.3671875 171.24609375 C16.53779663 172.72807251 16.53779663 172.72807251 15.69165039 174.23999023 C15.09473389 175.29774658 14.49781738 176.35550293 13.8828125 177.4453125 C13.25947021 178.55398682 12.63612793 179.66266113 11.99389648 180.80493164 C6.66066138 190.26055177 1.20543855 199.64285547 -4.28515625 209.0078125 C-8.09521281 215.50985984 -11.85754009 222.03902686 -15.6171875 228.5703125 C-28.97852528 251.76522516 -28.97852528 251.76522516 -31.75390625 256.13525391 C-32.97255996 258.18217544 -32.97255996 258.18217544 -33.77734375 260.79833984 C-35.11541586 264.08602484 -36.11497948 265.85523776 -38.8671875 268.1328125 C-45.26062911 269.84951597 -52.2054021 269.0642966 -58.7421875 268.7578125 C-60.59363066 268.70762473 -62.44520357 268.66200201 -64.296875 268.62109375 C-68.82352173 268.51114708 -73.34393434 268.33878942 -77.8671875 268.1328125 C-76.52263052 264.58846823 -74.95490406 261.32482057 -73.1015625 258.01953125 C-72.54839355 257.03114258 -71.99522461 256.04275391 -71.42529297 255.02441406 C-70.82861816 253.96706055 -70.23194336 252.90970703 -69.6171875 251.8203125 C-68.68543701 250.16273926 -68.68543701 250.16273926 -67.73486328 248.47167969 C-62.89676887 239.89256443 -57.96028178 231.3727387 -52.97949219 222.87573242 C-49.23346682 216.48474482 -45.53096663 210.07127579 -41.8671875 203.6328125 C-35.28878925 192.08117147 -28.57870295 180.60745784 -21.8671875 169.1328125 C-14.03974166 155.74347183 -6.24379676 142.33700209 1.49633789 128.89697266 C6.57442772 120.08501282 11.69249876 111.29691765 16.83007812 102.51953125 C17.38115234 101.57722656 17.93222656 100.63492188 18.5 99.6640625 C18.98581543 98.83455078 19.47163086 98.00503906 19.97216797 97.15039062 C20.73039409 95.83234674 21.45279095 94.4928556 22.1328125 93.1328125 C22.7928125 93.1328125 23.4528125 93.1328125 24.1328125 93.1328125 C24.73867188 94.23496094 25.34453125 95.33710938 25.96875 96.47265625 C31.3996431 106.31971141 36.98578457 116.05634719 42.71533203 125.73193359 C55.05596378 146.6340646 67.17596184 167.66960818 79.1953125 188.7578125 C85.75665081 200.26549215 92.44484261 211.6984229 99.1328125 223.1328125 C108.21703175 238.67194349 117.24897812 254.24007282 126.23291016 269.83740234 C128.13808768 273.14196238 130.04698238 276.44434729 131.95703125 279.74609375 C135.69149863 286.20305283 139.41692459 292.66514301 143.1328125 299.1328125 C143.76654785 300.2357666 144.4002832 301.3387207 145.05322266 302.47509766 C146.89759262 305.69132084 148.73518052 308.91131112 150.5703125 312.1328125 C151.41360107 313.6027063 151.41360107 313.6027063 152.27392578 315.10229492 C152.78294434 315.99924072 153.29196289 316.89618652 153.81640625 317.8203125 C154.26556396 318.60792969 154.71472168 319.39554688 155.17749023 320.20703125 C156.1328125 322.1328125 156.1328125 322.1328125 156.1328125 324.1328125 C154.15824129 324.13639503 154.15824129 324.13639503 152.14377975 324.14004993 C120.81877088 324.19754526 89.49383831 324.27037118 58.16891108 324.36179878 C54.30417672 324.37306547 50.43944199 324.38420416 46.57470703 324.39526367 C45.42072251 324.3985692 45.42072251 324.3985692 44.24342516 324.4019415 C31.82504979 324.43720878 19.40667447 324.46213236 6.98826775 324.48315952 C-5.77648864 324.50500616 -18.54118067 324.53813967 -31.30588222 324.58151406 C-39.16745995 324.60787905 -47.02895766 324.62568559 -54.89057735 324.63215854 C-60.94280839 324.63809044 -66.99488347 324.65980854 -73.04706001 324.68708801 C-75.51230928 324.6958089 -77.97758225 324.69960332 -80.4428463 324.69782066 C-98.30558 324.68899019 -116.41084727 325.14396878 -133.4296875 331.1953125 C-134.71238525 331.63822632 -134.71238525 331.63822632 -136.02099609 332.09008789 C-155.02205975 338.9380894 -172.06877417 349.75834644 -186.02734375 364.3984375 C-187.8671875 366.1328125 -187.8671875 366.1328125 -189.8671875 366.1328125 C-190.12886719 366.71160156 -190.39054688 367.29039062 -190.66015625 367.88671875 C-191.94187143 370.27178746 -193.40371216 372.02813101 -195.1796875 374.0703125 C-206.97911171 388.63356581 -215.74113971 405.90932775 -225.10107422 422.08447266 C-228.01126028 427.10750046 -230.9400995 432.11962209 -233.8671875 437.1328125 C-235.03002888 439.12625486 -236.19278919 441.11974451 -237.35546875 443.11328125 C-239.72701419 447.17888233 -242.09951494 451.243924 -244.47265625 455.30859375 C-245.37274414 456.85063477 -245.37274414 456.85063477 -246.29101562 458.42382812 C-247.40532651 460.33284135 -248.51987806 462.24171413 -249.63476562 464.15039062 C-255.07023549 473.46356347 -260.46765002 482.79877933 -265.8671875 492.1328125 C-234.16715959 496.09475409 -234.16715959 496.09475409 -204.82275391 488.72412109 C-198.82951218 482.97255929 -196.4283518 474.64522859 -194.11621094 466.88720703 C-192.18094757 461.07006862 -189.04792056 456.17423658 -185.8046875 451.0078125 C-184.65182118 449.0536112 -183.50599146 447.09524187 -182.3671875 445.1328125 C-181.79613281 444.15570312 -181.22507812 443.17859375 -180.63671875 442.171875 C-177.5061568 436.7953249 -174.40745857 431.40043099 -171.3046875 426.0078125 C-166.10198305 416.96998313 -160.83875384 407.9709061 -155.51953125 399.0012207 C-149.52298015 388.88297302 -143.62311308 378.70846937 -137.78858948 368.49595642 C-137.15452682 367.38611893 -136.52046417 366.27628143 -135.8671875 365.1328125 C-135.31155426 365.13183569 -134.75592101 365.13085888 -134.1834504 365.12985247 C-101.18122961 365.07145777 -68.17908357 364.99756893 -35.17694486 364.90382622 C-31.2057728 364.89255936 -27.23460038 364.8814207 -23.26342773 364.87036133 C-22.07764829 364.8670558 -22.07764829 364.8670558 -20.8679137 364.8636835 C-8.10290333 364.82840428 4.662107 364.80348739 17.4271479 364.78246548 C30.54559233 364.76062844 43.66397403 364.72750379 56.78236502 364.68411094 C64.86351803 364.65772964 72.94459302 364.63993502 81.0257869 364.63346646 C87.24425244 364.62754078 93.46257627 364.60583718 99.68098259 364.57853699 C102.21599218 364.56980676 104.75102489 364.56602366 107.28604889 364.56780434 C147.83271644 364.58727765 183.44213298 353.45034274 213.76171875 325.5078125 C217.92626059 321.3364098 221.53773807 316.79527697 225.1328125 312.1328125 C226.11701172 310.94171875 226.11701172 310.94171875 227.12109375 309.7265625 C236.37861348 298.00160765 243.50373639 282.5899472 247.1328125 268.1328125 C247.30433838 267.48747559 247.47586426 266.84213867 247.65258789 266.17724609 C249.60399963 257.91664742 249.57476156 249.57156389 249.5703125 241.1328125 C249.57071533 240.35246643 249.57111816 239.57212036 249.5715332 238.76812744 C249.53617536 226.89733979 248.84595371 216.17518664 244.1328125 205.1328125 C243.83810059 204.41544922 243.54338867 203.69808594 243.23974609 202.95898438 C231.08512062 173.85867461 208.27918699 151.10321941 179.1496582 138.94726562 C178.48409912 138.67849609 177.81854004 138.40972656 177.1328125 138.1328125 C176.34028076 137.80732422 175.54774902 137.48183594 174.73120117 137.14648438 C167.28141753 134.24710912 159.80738403 132.73059619 151.9453125 131.3828125 C150.0880957 131.05216797 150.0880957 131.05216797 148.19335938 130.71484375 C145.17461126 130.17869544 142.15459302 129.65154562 139.1328125 129.1328125 C153.58942919 154.26277871 153.58942919 154.26277871 168.3828125 179.1953125 C178.0061124 195.17516879 187.27540421 211.36736714 196.58081055 227.53344727 C200.69897376 234.67700251 204.86756262 241.78874802 209.0703125 248.8828125 C209.86622803 250.23463623 209.86622803 250.23463623 210.67822266 251.61376953 C213.00807435 255.56885994 215.35448652 259.50680468 217.7890625 263.3984375 C218.37506226 264.3579834 218.37506226 264.3579834 218.97290039 265.33691406 C219.98027297 266.98546416 221.00680623 268.62226575 222.03515625 270.2578125 C223.1328125 273.1328125 223.1328125 273.1328125 222.51171875 276.12890625 C218.67571504 284.48552622 214.39711493 292.14346505 208.8203125 299.4453125 C208.38783203 300.01451416 207.95535156 300.58371582 207.50976562 301.17016602 C206.43648859 302.53394619 205.29037913 303.83980846 204.1328125 305.1328125 C203.4728125 305.1328125 202.8128125 305.1328125 202.1328125 305.1328125 C200.84277344 303.31054687 200.84277344 303.31054687 199.3671875 300.7265625 C198.81426025 299.76766113 198.26133301 298.80875977 197.69165039 297.82080078 C197.09473389 296.76876465 196.49781738 295.71672852 195.8828125 294.6328125 C194.60568515 292.41133391 193.32833542 290.18998315 192.05078125 287.96875 C191.39770996 286.82760742 190.74463867 285.68646484 190.07177734 284.51074219 C187.14316486 279.40871721 184.16771806 274.33439957 181.1953125 269.2578125 C175.58326645 259.64813375 170.02023333 250.010646 164.46606445 240.36743164 C160.57605372 233.61887171 156.65637977 226.88930458 152.69384766 220.18310547 C149.68167143 215.08125539 146.71619065 209.95350686 143.7578125 204.8203125 C139.94904993 198.21697484 136.06878552 191.66107693 132.1328125 185.1328125 C127.86204941 178.04899644 123.67573223 170.92313841 119.54980469 163.75415039 C115.55291191 156.82437206 111.47163098 149.94616124 107.3828125 143.0703125 C101.29249047 132.82647575 95.29689842 122.53264799 89.35644531 112.20092773 C85.9783365 106.32687142 82.5816628 100.46560748 79.1328125 94.6328125 C74.32288833 86.49753365 69.61353341 78.30506849 64.90405273 70.11132812 C61.7313159 64.60110375 58.53560225 59.10701559 55.28125 53.64453125 C54.67708252 52.63028076 54.07291504 51.61603027 53.45043945 50.57104492 C52.30188581 48.64826803 51.14952516 46.72775886 49.99291992 44.80981445 C49.48349854 43.95734131 48.97407715 43.10486816 48.44921875 42.2265625 C48.00006104 41.48083984 47.55090332 40.73511719 47.08813477 39.96679688 C46.1328125 38.1328125 46.1328125 38.1328125 46.1328125 36.1328125 C30.9528125 36.1328125 15.7728125 36.1328125 0.1328125 36.1328125 C-0.5271875 37.7828125 -1.1871875 39.4328125 -1.8671875 41.1328125 C-2.66456787 42.67116584 -3.49171373 44.19435708 -4.34375 45.703125 C-4.84116699 46.58524658 -5.33858398 47.46736816 -5.85107422 48.3762207 C-6.3926416 49.327146 -6.93420898 50.27807129 -7.4921875 51.2578125 C-8.06340332 52.26481201 -8.63461914 53.27181152 -9.22314453 54.30932617 C-14.30182579 63.22194065 -19.52614855 72.04559585 -24.77514648 80.85864258 C-29.43215013 88.6849263 -34.01725794 96.54915143 -38.5546875 104.4453125 C-43.10934892 112.37127582 -47.70102989 120.27195001 -52.3671875 128.1328125 C-57.09515522 136.09811771 -61.74916093 144.10328142 -66.3671875 152.1328125 C-72.63820774 163.03449246 -79.00430213 173.87638153 -85.42089844 184.69287109 C-96.61440806 203.57672241 -107.65953145 222.5488209 -118.6171875 241.5703125 C-122.93377863 249.05925113 -127.25158572 256.54730502 -131.6171875 264.0078125 C-132.01131836 264.68513428 -132.40544922 265.36245605 -132.81152344 266.06030273 C-133.81120166 267.7623678 -134.83771745 269.4485995 -135.8671875 271.1328125 C-136.44919922 272.24462891 -136.44919922 272.24462891 -137.04296875 273.37890625 C-140.15794663 276.37382074 -144.22832936 277.11572618 -148.3046875 278.3203125 C-155.9702525 280.72783417 -163.35707831 283.44611104 -170.6796875 286.7578125 C-171.48398193 287.11770264 -172.28827637 287.47759277 -173.11694336 287.84838867 C-177.76567873 289.9880819 -182.02160432 292.39588538 -186.24487305 295.29052734 C-186.78023682 295.56848145 -187.31560059 295.84643555 -187.8671875 296.1328125 C-188.5271875 295.8028125 -189.1871875 295.4728125 -189.8671875 295.1328125 C-189.34886353 294.24650146 -189.34886353 294.24650146 -188.82006836 293.34228516 C-181.99334455 281.66461126 -175.18621209 269.9762574 -168.4296875 258.2578125 C-167.809729 257.18257324 -167.18977051 256.10733398 -166.55102539 254.99951172 C-163.37905552 249.49596993 -160.21011334 243.99069479 -157.04296875 238.484375 C-150.68440684 227.43656726 -144.2833967 216.41791317 -137.77856445 205.45556641 C-132.959607 197.3209607 -128.2359803 189.13278702 -123.51904297 180.9387207 C-111.064341 159.30812955 -98.40239191 137.79763859 -85.77355957 116.26843262 C-76.35259165 100.2076448 -66.94436559 84.13962891 -57.56884766 68.05224609 C-54.09023487 62.08420424 -50.60895293 56.1177184 -47.12744141 50.15136719 C-44.1459116 45.04136799 -41.16668692 39.93004688 -38.19140625 34.81640625 C-37.2777832 33.24729492 -37.2777832 33.24729492 -36.34570312 31.64648438 C-35.20427414 29.68601475 -34.06357127 27.72512206 -32.92382812 25.76367188 C-31.87202494 23.95784211 -30.80212766 22.16240083 -29.71235657 20.37922668 C-28.36999566 18.01745964 -27.28052761 15.83028511 -26.22489929 13.35319519 C-20.35864348 0.53268423 -13.3097331 -0.16729067 0 0 Z " fill="#111C2F" transform="translate(488.8671875,247.8671875)"/>
<path d="M0 0 C2.75453828 2.60228477 4.84034544 5.08597832 6.7421875 8.359375 C7.24355225 9.21515137 7.74491699 10.07092773 8.26147461 10.95263672 C8.79393799 11.8757666 9.32640137 12.79889648 9.875 13.75 C10.44162354 14.7208252 11.00824707 15.69165039 11.59204102 16.69189453 C12.79302542 18.75105456 13.99128548 20.81180562 15.18701172 22.87402344 C16.94280569 25.90138487 18.7062282 28.92414588 20.47265625 31.9453125 C23.39795481 36.94996054 26.31691037 41.95827114 29.23388672 46.96777344 C31.57133947 50.98092842 33.91152285 54.99248721 36.25195312 59.00390625 C38.00292846 62.00501928 39.75341687 65.006416 41.50390625 68.0078125 C43.82252074 71.98276499 46.14297316 75.95663617 48.46484375 79.9296875 C54.52905777 90.31011972 60.56538647 100.70564034 66.5625 111.125 C71.76666974 120.165022 77.03028859 129.16693499 82.35205078 138.13818359 C86.38429079 144.94032102 90.361511 151.77271864 94.30493164 158.62670898 C97.13572122 163.53966272 100.03789663 168.39780876 103.07421875 173.1875 C104 175 104 175 104 178 C86.57150804 178.37441214 69.14427712 178.65621165 51.71267891 178.82899475 C43.61795452 178.9113696 35.52573379 179.02357319 27.43261719 179.20703125 C20.37517217 179.36693548 13.31954006 179.46982506 6.2603339 179.50541592 C2.5241881 179.52621444 -1.20677391 179.57474277 -4.94124985 179.69168091 C-27.62655233 180.37504073 -27.62655233 180.37504073 -33.2074585 176.44586182 C-36.64675941 172.75339554 -38.62738775 168.66575857 -40.28515053 163.93910503 C-41.30399244 161.17538825 -42.79063624 158.75316728 -44.328125 156.25 C-45.30537248 154.50183462 -46.27930997 152.75181497 -47.25 151 C-51.7182705 143.01828029 -56.25268099 135.0810386 -60.875 127.1875 C-66.40874951 117.73542424 -71.90270276 108.26148941 -77.35888672 98.7644043 C-80.56805931 93.18563394 -83.80511471 87.62590177 -87.09375 82.09375 C-87.74923828 80.98644531 -88.40472656 79.87914062 -89.08007812 78.73828125 C-90.33769008 76.61710056 -91.60178375 74.4997463 -92.87304688 72.38671875 C-93.43056641 71.44441406 -93.98808594 70.50210938 -94.5625 69.53125 C-95.05878906 68.70173828 -95.55507813 67.87222656 -96.06640625 67.01757812 C-96.37449219 66.35177734 -96.68257812 65.68597656 -97 65 C-95.51591069 62.03182137 -93.45508834 61.82345681 -90.390625 60.65234375 C-88.66972656 59.99202148 -88.66972656 59.99202148 -86.9140625 59.31835938 C-85.70492187 58.86267578 -84.49578125 58.40699219 -83.25 57.9375 C-82.05632813 57.47794922 -80.86265625 57.01839844 -79.6328125 56.54492188 C-69.89640217 52.8365911 -69.89640217 52.8365911 -65 52 C-60.22136425 58.9153167 -55.97675257 66.07691428 -51.8125 73.375 C-51.14691033 74.53584217 -50.48097109 75.69648396 -49.81469727 76.85693359 C-48.48684914 79.1701775 -47.16048718 81.48425033 -45.83496094 83.79882812 C-43.38046719 88.08080284 -40.91171801 92.35440003 -38.4375 96.625 C-38.01025635 97.36290771 -37.5830127 98.10081543 -37.14282227 98.86108398 C-29.02716436 112.93166073 -29.02716436 112.93166073 -20.75558472 126.91017151 C-19 130 -19 130 -17.60307312 133.13801575 C-14.71316661 139.41783711 -14.71316661 139.41783711 -9.17477417 143.088974 C-5.68027626 143.48747113 -2.36289147 143.50694519 1.15234375 143.390625 C3.03524864 143.39845001 3.03524864 143.39845001 4.95619202 143.40643311 C8.27549778 143.40958511 11.58577967 143.36132796 14.90368652 143.28753662 C18.29571395 143.22493243 21.68757457 143.2306809 25.08007812 143.23046875 C31.72167128 143.21627869 38.35980606 143.13421205 45 143 C40.05127837 134.15128332 35.07436902 125.32965839 29.875 116.625 C24.95735469 108.34849628 20.11396243 100.03191844 15.3125 91.6875 C7.99269138 78.97035019 0.56216997 66.32342254 -6.91723633 53.69970703 C-8.58860901 50.87402392 -10.25368257 48.04470493 -11.91796875 45.21484375 C-13.80910936 42.00136618 -15.7239798 38.80586125 -17.67578125 35.62890625 C-18.42976199 34.37764905 -19.18367432 33.12635062 -19.9375 31.875 C-20.58589844 30.82054687 -21.23429688 29.76609375 -21.90234375 28.6796875 C-23 26 -23 26 -22.30444336 24.07836914 C-20.83365948 21.73496971 -19.20755252 19.99807212 -17.2265625 18.06640625 C-16.4840625 17.33486328 -15.7415625 16.60332031 -14.9765625 15.84960938 C-14.20054687 15.09486328 -13.42453125 14.34011719 -12.625 13.5625 C-5.94960962 7.11077691 -5.94960962 7.11077691 0 0 Z " fill="#111D30" transform="translate(756,597)"/>
<path d="M0 0 C2.44171158 3.44712223 1.9916935 6.15433157 1.33984375 10.109375 C1.17162109 11.04523437 1.17162109 11.04523437 1 12 C0.9175 12.7425 0.835 13.485 0.75 14.25 C-0.42862767 17.00013122 -2.62101587 18.2920114 -5 20 C-6.70291208 16.59417584 -5.04440176 12.99582088 -4.1875 9.4375 C-3.91969727 8.24737305 -3.91969727 8.24737305 -3.64648438 7.03320312 C-3.16661267 5.00457581 -2.59001295 2.99937249 -2 1 C-1.34 0.67 -0.68 0.34 0 0 Z " fill="#1A2233" transform="translate(740,505)"/>
<path d="M0 0 C1.06340773 3.19736014 0.96582104 4.8981025 -0.3125 8 C-0.59351563 8.6909375 -0.87453125 9.381875 -1.1640625 10.09375 C-2.04398261 12.1002968 -2.95616506 14.07292011 -4 16 C-4.66 15.67 -5.32 15.34 -6 15 C-6 15.66 -6 16.32 -6 17 C-7.98 17.99 -7.98 17.99 -10 19 C-8.40376856 14.60616294 -6.21975667 10.71004193 -3.875 6.6875 C-3.50246094 6.04232422 -3.12992187 5.39714844 -2.74609375 4.73242188 C-1.83367787 3.15324055 -0.91724491 1.57638136 0 0 Z " fill="#1C2536" transform="translate(356,445)"/>
<path d="M0 0 C2.11034072 0.53887445 4.2132162 1.10704229 6.3125 1.6875 C8.07013672 2.15736328 8.07013672 2.15736328 9.86328125 2.63671875 C13.46900132 4.20383744 14.38665133 5.48790884 16 9 C9.89262558 7.23536928 3.92566493 5.30442525 -2 3 C-1.34 2.01 -0.68 1.02 0 0 Z " fill="#202835" transform="translate(657,379)"/>
<path d="M0 0 C0.99 0.33 1.98 0.66 3 1 C0.03 6.28 -2.94 11.56 -6 17 C-6.82810826 13.68756695 -7.09278428 11.34023421 -7 8 C-6.34 8 -5.68 8 -5 8 C-4.731875 7.236875 -4.46375 6.47375 -4.1875 5.6875 C-3.05575888 3.12619116 -2.08776599 1.80307062 0 0 Z " fill="#1F2733" transform="translate(421,396)"/>
<path d="M0 0 C0.84648337 3.13198848 1.29734145 4.94198087 0 8 C-0.825 8.804375 -1.65 9.60875 -2.5 10.4375 C-5.18296991 13.18754416 -5.50344446 14.32548903 -6 18 C-6.66 18.66 -7.32 19.32 -8 20 C-8.99 20 -9.98 20 -11 20 C-9.36047417 15.3606824 -6.93128948 11.36144142 -4.375 7.1875 C-3.95476562 6.49462891 -3.53453125 5.80175781 -3.1015625 5.08789062 C-2.0710533 3.38989252 -1.03598319 1.69466386 0 0 Z " fill="#28303D" transform="translate(257,613)"/>
<path d="M0 0 C4.62435793 5.33579761 9.64617267 11.93726223 11 19 C4.4 15.7 4.4 15.7 3 12 C2.875 8.75 2.875 8.75 3 6 C2.34 6 1.68 6 1 6 C0.67 4.02 0.34 2.04 0 0 Z " fill="#232A38" transform="translate(696,495)"/>
<path d="M0 0 C-1.76429199 4.97209562 -4.3939166 9.43438061 -7 14 C-7.99 13.67 -8.98 13.34 -10 13 C-9.42655063 10.13275314 -9.1385485 9.1385485 -7 7 C-6.67 5.989375 -6.34 4.97875 -6 3.9375 C-4.66710984 0.02213517 -4.06194902 0 0 0 Z " fill="#1D2534" transform="translate(266,664)"/>
<path d="M0 0 C0 1.32 0 2.64 0 4 C-1.32 4 -2.64 4 -4 4 C-4 4.66 -4 5.32 -4 6 C-5.485 5.7525 -5.485 5.7525 -7 5.5 C-11.02732942 4.91525483 -14.93474623 4.92867976 -19 5 C-15.74358332 3.19523895 -12.54663205 2.26051195 -8.9375 1.375 C-7.37322266 0.98441406 -7.37322266 0.98441406 -5.77734375 0.5859375 C-3 0 -3 0 0 0 Z " fill="#272E3C" transform="translate(647,607)"/>
<path d="M0 0 C0.99 0.33 1.98 0.66 3 1 C-0.80411834 4.91939465 -4.81576108 8.49102731 -9 12 C-9.33 10.35 -9.66 8.7 -10 7 C-8.68 6.67 -7.36 6.34 -6 6 C-6 5.34 -6 4.68 -6 4 C-4.02 3.34 -2.04 2.68 0 2 C0 1.34 0 0.68 0 0 Z " fill="#262D3A" transform="translate(313,598)"/>
<path d="M0 0 C1.32 0 2.64 0 4 0 C4.18175781 0.54269531 4.36351562 1.08539062 4.55078125 1.64453125 C4.80214844 2.35996094 5.05351563 3.07539062 5.3125 3.8125 C5.55613281 4.52019531 5.79976562 5.22789062 6.05078125 5.95703125 C7.0726487 8.15635915 8.28348459 9.32080014 10 11 C10.6875 13.6875 10.6875 13.6875 11 16 C10.34 16.33 9.68 16.66 9 17 C7.49743011 14.35559624 5.9978388 11.70958148 4.5 9.0625 C4.07074219 8.30775391 3.64148438 7.55300781 3.19921875 6.77539062 C2.79316406 6.05673828 2.38710938 5.33808594 1.96875 4.59765625 C1.59169922 3.93258057 1.21464844 3.26750488 0.82617188 2.58227539 C0 1 0 1 0 0 Z " fill="#1E2533" transform="translate(574,515)"/>
<path d="M0 0 C0.33 0.66 0.66 1.32 1 2 C0.36971413 3.68076231 -0.29788106 5.34795544 -1 7 C-1 7.66 -1 8.32 -1 9 C-1.66 9 -2.32 9 -3 9 C-3.2475 9.886875 -3.495 10.77375 -3.75 11.6875 C-5.03934768 15.10427135 -6.59980129 17.2797748 -9 20 C-9.66 19.67 -10.32 19.34 -11 19 C-7.37 12.73 -3.74 6.46 0 0 Z " fill="#232B39" transform="translate(191,726)"/>
<path d="M0 0 C1.3340394 4.00211819 0.40012984 6.07963644 -1 10 C-2.5 11.6875 -2.5 11.6875 -4 13 C-5.17574711 15.09989652 -5.17574711 15.09989652 -6 17 C-6.66 17 -7.32 17 -8 17 C-8 17.66 -8 18.32 -8 19 C-8.66 18.67 -9.32 18.34 -10 18 C-6.7 12.06 -3.4 6.12 0 0 Z " fill="#212837" transform="translate(307,692)"/>
<path d="M0 0 C1.32 1.32 2.64 2.64 4 4 C3.34 5.32 2.68 6.64 2 8 C-1 8 -4 8 -7 8 C-4.69 5.36 -2.38 2.72 0 0 Z " fill="#1E2637" transform="translate(756,597)"/>
<path d="M0 0 C3.97497544 3.40712181 5.86793788 7.32760855 8 12 C6.35 12.33 4.7 12.66 3 13 C2 10 2 10 1.5625 7.375 C1.2840625 6.199375 1.2840625 6.199375 1 5 C0.34 4.67 -0.32 4.34 -1 4 C-0.67 2.68 -0.34 1.36 0 0 Z " fill="#1E2636" transform="translate(524,363)"/>
<path d="M0 0 C0.66 0 1.32 0 2 0 C1 3 0 6 -1 9 C-1.03920815 10.99961564 -1.04443347 13.00049364 -1 15 C-2.65 14.67 -4.3 14.34 -6 14 C-5.41892368 10.2397015 -4.34800504 7.46964968 -2.4375 4.1875 C-1.98246094 3.39730469 -1.52742187 2.60710938 -1.05859375 1.79296875 C-0.53458984 0.90544922 -0.53458984 0.90544922 0 0 Z " fill="#192233" transform="translate(227,664)"/>
<path d="M0 0 C-2.475 4.455 -2.475 4.455 -5 9 C-5.99 8.67 -6.98 8.34 -8 8 C-8.3125 5.1875 -8.3125 5.1875 -8 2 C-4.88411016 -0.61061041 -3.93844351 -1.3128145 0 0 Z " fill="#192231" transform="translate(305,765)"/>
<path d="M0 0 C0.66 0.99 1.32 1.98 2 3 C0.6875 6.5 0.6875 6.5 -1 10 C-1.33 10.99 -1.66 11.98 -2 13 C-2.99 13.495 -2.99 13.495 -4 14 C-4.33 14.66 -4.66 15.32 -5 16 C-6.2109375 14.390625 -6.2109375 14.390625 -7 12 C-5.6640625 8.984375 -5.6640625 8.984375 -3.625 5.75 C-2.95726562 4.67234375 -2.28953125 3.5946875 -1.6015625 2.484375 C-1.07304687 1.66453125 -0.54453125 0.8446875 0 0 Z " fill="#172031" transform="translate(321,505)"/>
<path d="M0 0 C0.66 0.33 1.32 0.66 2 1 C0.43358249 5.30764815 -1.68336156 9.06171464 -4 13 C-5.41377341 10.36095629 -6.37240135 7.92879371 -7 5 C-5.02 4.67 -3.04 4.34 -1 4 C-0.67 2.68 -0.34 1.36 0 0 Z " fill="#1E2633" transform="translate(282,633)"/>
<path d="M0 0 C2.74277578 3.19990508 4.6302836 6.00499382 6 10 C4.35 10.33 2.7 10.66 1 11 C0.67 10.01 0.34 9.02 0 8 C-0.99 8.495 -0.99 8.495 -2 9 C-1.34 6.03 -0.68 3.06 0 0 Z " fill="#1B2233" transform="translate(640,399)"/>
<path d="M0 0 C0.98613281 0.20882812 1.97226562 0.41765625 2.98828125 0.6328125 C3.98214844 0.83648438 4.97601562 1.04015625 6 1.25 C6.75925781 1.41757812 7.51851562 1.58515625 8.30078125 1.7578125 C5.47535796 3.64142803 4.49018807 4.07683936 1.30078125 4.4453125 C0.62015625 4.53167969 -0.06046875 4.61804688 -0.76171875 4.70703125 C-2.69921875 4.7578125 -2.69921875 4.7578125 -5.69921875 3.7578125 C-5.69921875 3.0978125 -5.69921875 2.4378125 -5.69921875 1.7578125 C-2.69921875 -0.2421875 -2.69921875 -0.2421875 0 0 Z " fill="#202838" transform="translate(644.69921875,638.2421875)"/>
<path d="M0 0 C1 3 1 3 1 6 C1.66 6.66 2.32 7.32 3 8 C1.71475739 8.86380259 0.42157581 9.71580369 -0.875 10.5625 C-1.59429687 11.03816406 -2.31359375 11.51382813 -3.0546875 12.00390625 C-3.69664062 12.33261719 -4.33859375 12.66132812 -5 13 C-5.66 12.67 -6.32 12.34 -7 12 C-4.69 8.04 -2.38 4.08 0 0 Z " fill="#1C2330" transform="translate(306,531)"/>
<path d="M0 0 C-0.33 0.99 -0.66 1.98 -1 3 C-4.16015625 3.94921875 -4.16015625 3.94921875 -8.0625 4.6875 C-9.35285156 4.93886719 -10.64320313 5.19023438 -11.97265625 5.44921875 C-12.97167969 5.63097656 -13.97070312 5.81273437 -15 6 C-15 5.34 -15 4.68 -15 4 C-14.37351562 3.72285156 -13.74703125 3.44570313 -13.1015625 3.16015625 C-12.28429687 2.79792969 -11.46703125 2.43570313 -10.625 2.0625 C-9.81289063 1.70285156 -9.00078125 1.34320312 -8.1640625 0.97265625 C-3.5982659 -1.07947977 -3.5982659 -1.07947977 0 0 Z " fill="#222A38" transform="translate(373,572)"/>
<path d="M0 0 C0.87840996 3.09720845 0.99435406 4.90645403 0 8 C-0.66 8 -1.32 8 -2 8 C-2.4021875 9.2065625 -2.4021875 9.2065625 -2.8125 10.4375 C-3.4003125 11.7059375 -3.4003125 11.7059375 -4 13 C-4.99 13.33 -5.98 13.66 -7 14 C-5.23570801 9.02790438 -2.6060834 4.56561939 0 0 Z " fill="#242B3A" transform="translate(217,681)"/>
<path d="M0 0 C2.475 0.495 2.475 0.495 5 1 C5.12375 1.969375 5.2475 2.93875 5.375 3.9375 C5.58125 4.948125 5.7875 5.95875 6 7 C6.66 7.33 7.32 7.66 8 8 C8 9.98 8 11.96 8 14 C5.66635648 11.07096942 3.95039164 8.11431797 2.3125 4.75 C1.65701172 3.41195313 1.65701172 3.41195313 0.98828125 2.046875 C0.66214844 1.37140625 0.33601562 0.6959375 0 0 Z " fill="#1B2231" transform="translate(548,470)"/>
<path d="M0 0 C1.1875 1.5 1.1875 1.5 2 4 C1.27101296 6.78824238 0.1843275 9.37665092 -1 12 C-1.33 11.34 -1.66 10.68 -2 10 C-2.66 10 -3.32 10 -4 10 C-4 10.66 -4 11.32 -4 12 C-4.66 12 -5.32 12 -6 12 C-4.43358249 7.69235185 -2.31663844 3.93828536 0 0 Z " fill="#222A3A" transform="translate(371,419)"/>
<path d="M0 0 C1 3 1 3 0.00390625 5.26171875 C-0.47175781 6.06222656 -0.94742187 6.86273438 -1.4375 7.6875 C-2.14712891 8.89986328 -2.14712891 8.89986328 -2.87109375 10.13671875 C-3.24363281 10.75160156 -3.61617188 11.36648438 -4 12 C-4.66 11.67 -5.32 11.34 -6 11 C-5.62671065 5.64951939 -4.0042343 3.49087093 0 0 Z " fill="#202735" transform="translate(502,422)"/>
<path d="M0 0 C1.32 0.33 2.64 0.66 4 1 C2.7508258 4.45925163 1.32472205 7.14693203 -1 10 C-1.66 8.02 -2.32 6.04 -3 4 C-2.34 3.67 -1.68 3.34 -1 3 C-0.67 2.01 -0.34 1.02 0 0 Z " fill="#1C2433" transform="translate(237,706)"/>
<path d="M0 0 C0.66 0.33 1.32 0.66 2 1 C2 1.66 2 2.32 2 3 C2.66 3 3.32 3 4 3 C4 3.66 4 4.32 4 5 C4.66 5 5.32 5 6 5 C5.625 6.9375 5.625 6.9375 5 9 C4.01 9.495 4.01 9.495 3 10 C1.35 7.03 -0.3 4.06 -2 1 C-1.34 0.67 -0.68 0.34 0 0 Z " fill="#1C2333" transform="translate(721,425)"/>
<path d="M0 0 C0.6875 1.625 0.6875 1.625 1 4 C-0.4375 7.25 -0.4375 7.25 -2 10 C-4.29013653 6.5647952 -4.17842973 5.014669 -4 1 C-2 0 -2 0 0 0 Z " fill="#1B2333" transform="translate(332,713)"/>
<path d="M0 0 C1.32 0 2.64 0 4 0 C2.7508258 3.45925163 1.32472205 6.14693203 -1 9 C-1.66 7.35 -2.32 5.7 -3 4 C-2.34 4 -1.68 4 -1 4 C-0.67 2.68 -0.34 1.36 0 0 Z " fill="#212938" transform="translate(268,654)"/>
<path d="M0 0 C1.125 1.6875 1.125 1.6875 2 4 C1.4375 6.6875 1.4375 6.6875 0 9 C-2.625 9.8125 -2.625 9.8125 -5 10 C-3.66511872 6.40608886 -2.03977277 3.24509304 0 0 Z " fill="#1E2636" transform="translate(429,320)"/>
<path d="M0 0 C0.66 0 1.32 0 2 0 C2 1.65 2 3.3 2 5 C1.01 5.495 1.01 5.495 0 6 C-1.13350534 8.01669827 -1.13350534 8.01669827 -2 10 C-2.66 10 -3.32 10 -4 10 C-4 10.66 -4 11.32 -4 12 C-4.66 11.67 -5.32 11.34 -6 11 C-4.02 7.37 -2.04 3.74 0 0 Z " fill="#222837" transform="translate(343,630)"/>
<path d="M0 0 C1.98 0 3.96 0 6 0 C6.9765625 6.0546875 6.9765625 6.0546875 7 8 C6.34 8.66 5.68 9.32 5 10 C3.35 6.7 1.7 3.4 0 0 Z " fill="#202938" transform="translate(560,328)"/>
<path d="M0 0 C0.66 0 1.32 0 2 0 C2.33 1.98 2.66 3.96 3 6 C3.99 6.33 4.98 6.66 6 7 C5.67 7.99 5.34 8.98 5 10 C4.34 10 3.68 10 3 10 C-0.22265625 4.82421875 -0.22265625 4.82421875 -1 3 C-0.67 2.01 -0.34 1.02 0 0 Z " fill="#1C2333" transform="translate(679,692)"/>
<path d="M0 0 C0 0.66 0 1.32 0 2 C-5.445 3.485 -5.445 3.485 -11 5 C-11.33 3.68 -11.66 2.36 -12 1 C-7.915021 0.45533613 -4.1274515 0 0 0 Z " fill="#1D2432" transform="translate(357,577)"/>
<path d="M0 0 C0.99 0 1.98 0 3 0 C3 0.66 3 1.32 3 2 C3.66 2 4.32 2 5 2 C5 2.66 5 3.32 5 4 C5.99 3.67 6.98 3.34 8 3 C8 3.66 8 4.32 8 5 C7.34 5 6.68 5 6 5 C6 6.65 6 8.3 6 10 C3.25722422 6.80009492 1.3697164 3.99500618 0 0 Z " fill="#1F2535" transform="translate(620,430)"/>
<path d="M0 0 C2.475 0.495 2.475 0.495 5 1 C6.125 3.8125 6.125 3.8125 7 7 C6.01 8.485 6.01 8.485 5 10 C3.35 6.7 1.7 3.4 0 0 Z " fill="#212836" transform="translate(612,417)"/>
<path d="M0 0 C0.87840996 3.09720845 0.99435406 4.90645403 0 8 C-0.66 8 -1.32 8 -2 8 C-2 8.66 -2 9.32 -2 10 C-2.66 10 -3.32 10 -4 10 C-4.33 11.32 -4.66 12.64 -5 14 C-5.66 14 -6.32 14 -7 14 C-5.23570801 9.02790438 -2.6060834 4.56561939 0 0 Z " fill="#212937" transform="translate(489,379)"/>
<path d="M0 0 C0.66 1.32 1.32 2.64 2 4 C0.02 5.32 -1.96 6.64 -4 8 C-4.66 7.34 -5.32 6.68 -6 6 C-2.25 1.125 -2.25 1.125 0 0 Z " fill="#1B2434" transform="translate(712,605)"/>
<path d="M0 0 C0.66 0.33 1.32 0.66 2 1 C0.44298069 5.67105792 -2.08447373 9.08705685 -5 13 C-5.33 12.01 -5.66 11.02 -6 10 C-4.73779907 7.95436401 -3.39712274 5.95597184 -2 4 C-1.30570621 2.6808418 -0.62469505 1.35350594 0 0 Z " fill="#222937" transform="translate(703,534)"/>
<path d="M0 0 C4.42857143 5.14285714 4.42857143 5.14285714 5 9 C3.125 8.875 3.125 8.875 1 8 C-0.3125 5.0625 -0.3125 5.0625 -1 2 C-0.67 1.34 -0.34 0.68 0 0 Z " fill="#252C3B" transform="translate(796,664)"/>
<path d="M0 0 C1.32 0 2.64 0 4 0 C5.125 2.25 5.125 2.25 6 5 C5.125 7.3125 5.125 7.3125 4 9 C0 2.25 0 2.25 0 0 Z " fill="#EBEDEE" transform="translate(700,663)"/>
<path d="M0 0 C0.99 0.33 1.98 0.66 3 1 C0.17477391 5.67248931 -2.67760044 8.65996398 -7 12 C-5.90092392 9.43548915 -4.9015551 7.90445054 -2.875 5.9375 C-0.65228929 4.09006673 -0.65228929 4.09006673 -1 1 C-0.67 0.67 -0.34 0.34 0 0 Z " fill="#1E2838" transform="translate(708,567)"/>
<path d="M0 0 C1.5 1.375 1.5 1.375 3 3 C3 3.66 3 4.32 3 5 C0.69 6.32 -1.62 7.64 -4 9 C-2.80100302 5.9168649 -1.52299523 2.93720508 0 0 Z " fill="#1D2434" transform="translate(328,493)"/>
<path d="M0 0 C-1.44950455 3.7910119 -3.15172566 7.3874638 -5 11 C-6.46534385 7.19010598 -5.55203911 4.6758821 -4 1 C-2 0 -2 0 0 0 Z " fill="#232935" transform="translate(378,474)"/>
<path d="M0 0 C1.32 0.99 2.64 1.98 4 3 C3.34 4.32 2.68 5.64 2 7 C0.35 7 -1.3 7 -3 7 C-1.125 2.25 -1.125 2.25 0 0 Z " fill="#1D2636" transform="translate(460,429)"/>
<path d="M0 0 C0.66 0.33 1.32 0.66 2 1 C1.40716379 4.39192363 0.23256811 6.2107757 -2.0625 8.75 C-2.61035156 9.36359375 -3.15820312 9.9771875 -3.72265625 10.609375 C-4.14417969 11.06828125 -4.56570312 11.5271875 -5 12 C-5 8.55639368 -4.20408468 7.25204608 -2.5 4.3125 C-2.0359375 3.50425781 -1.571875 2.69601562 -1.09375 1.86328125 C-0.7328125 1.24839844 -0.371875 0.63351562 0 0 Z " fill="#232B39" transform="translate(206,700)"/>
<path d="M0 0 C0.66 0.33 1.32 0.66 2 1 C0.68 3.31 -0.64 5.62 -2 8 C-2.99 7.67 -3.98 7.34 -5 7 C-3.75023244 3.34683329 -3.32901247 2.21934164 0 0 Z " fill="#1D2333" transform="translate(342,697)"/>
<path d="M0 0 C0.66 0.99 1.32 1.98 2 3 C1.34 4.32 0.68 5.64 0 7 C-0.66 7 -1.32 7 -2 7 C-2.66 8.32 -3.32 9.64 -4 11 C-4.33 10.34 -4.66 9.68 -5 9 C-4.00390625 6.8359375 -4.00390625 6.8359375 -2.5625 4.375 C-2.08941406 3.55773437 -1.61632812 2.74046875 -1.12890625 1.8984375 C-0.75636719 1.27195312 -0.38382812 0.64546875 0 0 Z " fill="#232B39" transform="translate(329,654)"/>
<path d="M0 0 C-0.1875 1.8125 -0.1875 1.8125 -1 4 C-3.5625 5.75 -3.5625 5.75 -6 7 C-6.33 6.01 -6.66 5.02 -7 4 C-2.25 0 -2.25 0 0 0 Z " fill="#1D2737" transform="translate(293,576)"/>
<path d="M0 0 C1.32 0.33 2.64 0.66 4 1 C4.33 2.65 4.66 4.3 5 6 C3.35 6 1.7 6 0 6 C0 4.02 0 2.04 0 0 Z " fill="#1D2330" transform="translate(639,565)"/>
<path d="M0 0 C2.25245881 2.68841859 3.88213958 4.64641875 5 8 C4.01 8.33 3.02 8.66 2 9 C0.68 7.35 -0.64 5.7 -2 4 C-1.34 2.68 -0.68 1.36 0 0 Z " fill="#232A39" transform="translate(603,498)"/>
<path d="M0 0 C1.39195915 4.17587745 -0.17676781 6.13474776 -2 10 C-2.66 10 -3.32 10 -4 10 C-4 10.66 -4 11.32 -4 12 C-4.66 11.67 -5.32 11.34 -6 11 C-4.02 7.37 -2.04 3.74 0 0 Z " fill="#222A38" transform="translate(442,460)"/>
<path d="M0 0 C1 3 1 3 0.328125 5.0078125 C-0.02765625 5.70648438 -0.3834375 6.40515625 -0.75 7.125 C-1.26820313 8.18074219 -1.26820313 8.18074219 -1.796875 9.2578125 C-3 11 -3 11 -6 12 C-4.43358249 7.69235185 -2.31663844 3.93828536 0 0 Z " fill="#28303E" transform="translate(474,405)"/>
<path d="M0 0 C0.66 0.99 1.32 1.98 2 3 C1.34 3 0.68 3 0 3 C-0.66 5.31 -1.32 7.62 -2 10 C-1.34 10.33 -0.68 10.66 0 11 C-1.65 11 -3.3 11 -5 11 C-3.55049545 7.2089881 -1.84827434 3.6125362 0 0 Z " fill="#242936" transform="translate(169,763)"/>
<path d="M0 0 C0.99 0.33 1.98 0.66 3 1 C0.525 4.465 0.525 4.465 -2 8 C-2.66 7.34 -3.32 6.68 -4 6 C-2.68 4.02 -1.36 2.04 0 0 Z " fill="#242A39" transform="translate(291,620)"/>
<path d="M0 0 C1.1446875 0.2475 1.1446875 0.2475 2.3125 0.5 C5.03596236 1.09145396 5.03596236 1.09145396 8 1 C6.35830472 3.02054804 4.69088222 5.02043058 3 7 C2.67 7 2.34 7 2 7 C2 5.35 2 3.7 2 2 C1.34 2 0.68 2 0 2 C0 1.34 0 0.68 0 0 Z " fill="#1E2533" transform="translate(715,599)"/>
<path d="M0 0 C-0.33 0.99 -0.66 1.98 -1 3 C-1.9075 3.12375 -2.815 3.2475 -3.75 3.375 C-6.58970323 3.92109677 -8.52590591 4.57263803 -11 6 C-9.89210592 2.67631776 -9.51563783 2.38436907 -6.625 0.75 C-6.01914062 0.39421875 -5.41328125 0.0384375 -4.7890625 -0.328125 C-3 -1 -3 -1 0 0 Z " fill="#222936" transform="translate(686,590)"/>
<path d="M0 0 C0.99 0.33 1.98 0.66 3 1 C2.19185349 2.33597652 1.37836819 3.668725 0.5625 5 C0.11003906 5.7425 -0.34242188 6.485 -0.80859375 7.25 C-1.20175781 7.8275 -1.59492187 8.405 -2 9 C-2.33 9 -2.66 9 -3 9 C-3.26218749 5.85375007 -3.24754367 4.38162983 -1.5 1.6875 C-1.005 1.130625 -0.51 0.57375 0 0 Z " fill="#212836" transform="translate(741,576)"/>
<path d="M0 0 C1 3 1 3 0.328125 5.0078125 C-0.02765625 5.70648438 -0.3834375 6.40515625 -0.75 7.125 C-1.26820313 8.18074219 -1.26820313 8.18074219 -1.796875 9.2578125 C-3 11 -3 11 -6 12 C-4.43358249 7.69235185 -2.31663844 3.93828536 0 0 Z " fill="#232C3A" transform="translate(452,443)"/>
<path d="M0 0 C0.66 0 1.32 0 2 0 C0.79157144 4.43090471 -0.51668565 6.98112756 -4 10 C-4.33 9.01 -4.66 8.02 -5 7 C-4.07421875 5.17578125 -4.07421875 5.17578125 -2.6875 3.3125 C-2.23761719 2.68988281 -1.78773438 2.06726563 -1.32421875 1.42578125 C-0.88722656 0.95527344 -0.45023437 0.48476563 0 0 Z " fill="#202633" transform="translate(401,431)"/>
<path d="M0 0 C0.66 0.33 1.32 0.66 2 1 C-0.475 5.455 -0.475 5.455 -3 10 C-3.95904856 6.16380575 -3.91892116 4.67568464 -3 1 C-2.01 0.67 -1.02 0.34 0 0 Z " fill="#1F2633" transform="translate(432,379)"/>
<path d="M0 0 C0.66 0 1.32 0 2 0 C2.99 1.98 3.98 3.96 5 6 C3.35 5.67 1.7 5.34 0 5 C-0.5625 3.0625 -0.5625 3.0625 -1 1 C-0.67 0.67 -0.34 0.34 0 0 Z " fill="#1B2332" transform="translate(800,673)"/>
<path d="M0 0 C0.66 0.99 1.32 1.98 2 3 C1.125 5.6875 1.125 5.6875 0 8 C-0.99 8 -1.98 8 -3 8 C-3 8.66 -3 9.32 -3 10 C-3.66 9.67 -4.32 9.34 -5 9 C-3.35 6.03 -1.7 3.06 0 0 Z " fill="#1D2533" transform="translate(335,644)"/>
<path d="M0 0 C0.66 0.33 1.32 0.66 2 1 C2 1.99 2 2.98 2 4 C-0.5 5.6875 -0.5 5.6875 -3 7 C-3.66 6.34 -4.32 5.68 -5 5 C-3.35 3.35 -1.7 1.7 0 0 Z " fill="#1C2435" transform="translate(740,614)"/>
<path d="M0 0 C0.66 0 1.32 0 2 0 C3.6875 2.375 3.6875 2.375 5 5 C4.67 5.66 4.34 6.32 4 7 C2.68 6.67 1.36 6.34 0 6 C0 4.02 0 2.04 0 0 Z " fill="#1B2332" transform="translate(761,606)"/>
<path d="M0 0 C1.19873962 3.94727832 0.6900877 6.19730268 -1 10 C-1.99 10.33 -2.98 10.66 -4 11 C-4.33 10.34 -4.66 9.68 -5 9 C-4.00390625 6.8359375 -4.00390625 6.8359375 -2.5625 4.375 C-2.08941406 3.55773437 -1.61632812 2.74046875 -1.12890625 1.8984375 C-0.75636719 1.27195312 -0.38382812 0.64546875 0 0 Z " fill="#212937" transform="translate(431,479)"/>
<path d="M0 0 C2 0.25 2 0.25 4 1 C4.33 1.99 4.66 2.98 5 4 C4.38125 4.144375 3.7625 4.28875 3.125 4.4375 C0.96741678 4.93152225 0.96741678 4.93152225 -1 6 C-1.042721 4.33388095 -1.04063832 2.66617115 -1 1 C-0.67 0.67 -0.34 0.34 0 0 Z " fill="#182234" transform="translate(669,453)"/>
<path d="M0 0 C0.99 0.33 1.98 0.66 3 1 C2.34 2.98 1.68 4.96 1 7 C0.67 6.34 0.34 5.68 0 5 C-0.99 5 -1.98 5 -3 5 C-1.125 1.125 -1.125 1.125 0 0 Z " fill="#1B2332" transform="translate(386,454)"/>
<path d="M0 0 C0.99 0.33 1.98 0.66 3 1 C3 1.99 3 2.98 3 4 C0.5 6.1875 0.5 6.1875 -2 8 C-2.66 7.67 -3.32 7.34 -4 7 C-2.68 4.69 -1.36 2.38 0 0 Z " fill="#272F3D" transform="translate(382,400)"/>
<path d="M0 0 C1.98 0.66 3.96 1.32 6 2 C6 2.99 6 3.98 6 5 C0.25 4.25 0.25 4.25 -2 2 C-1.34 1.34 -0.68 0.68 0 0 Z " fill="#2D333E" transform="translate(657,379)"/>
<path d="M0 0 C0.66 0.66 1.32 1.32 2 2 C1.9375 4 1.9375 4 1 6 C-1.5625 7.25 -1.5625 7.25 -4 8 C-2.68 5.36 -1.36 2.72 0 0 Z " fill="#212938" transform="translate(313,682)"/>
<path d="M0 0 C2.475 0.495 2.475 0.495 5 1 C5.625 3.375 5.625 3.375 6 6 C5.34 6.66 4.68 7.32 4 8 C2.68 5.36 1.36 2.72 0 0 Z " fill="#242A3A" transform="translate(682,537)"/>
<path d="M0 0 C0.33 0 0.66 0 1 0 C0.67 2.31 0.34 4.62 0 7 C-1.32 7 -2.64 7 -4 7 C-2.79618552 4.50638429 -1.54571278 2.31856917 0 0 Z " fill="#1B2131" transform="translate(351,515)"/>
<path d="M0 0 C4 4.75 4 4.75 4 7 C3.01 7 2.02 7 1 7 C1 7.66 1 8.32 1 9 C0.34 9 -0.32 9 -1 9 C-0.67 6.03 -0.34 3.06 0 0 Z " fill="#1D2636" transform="translate(692,488)"/>
<path d="M0 0 C2.31 0.33 4.62 0.66 7 1 C7 1.66 7 2.32 7 3 C5.35 3.66 3.7 4.32 2 5 C1.34 3.35 0.68 1.7 0 0 Z " fill="#DBDDE2" transform="translate(628,377)"/>
<path d="M0 0 C0.66 1.32 1.32 2.64 2 4 C0 7 0 7 -4 8 C-2.68 5.36 -1.36 2.72 0 0 Z " fill="#242A39" transform="translate(405,361)"/>
<path d="M0 0 C0.33 0.66 0.66 1.32 1 2 C1.99 2.33 2.98 2.66 4 3 C3.67 3.99 3.34 4.98 3 6 C1 6 -1 6 -3 6 C-2.01 4.02 -1.02 2.04 0 0 Z " fill="#202838" transform="translate(420,335)"/>
<path d="M0 0 C0.99 0.66 1.98 1.32 3 2 C1.68 3.65 0.36 5.3 -1 7 C-1.99 6.34 -2.98 5.68 -4 5 C-3.34 5 -2.68 5 -2 5 C-1.7834375 4.0409375 -1.7834375 4.0409375 -1.5625 3.0625 C-1 1 -1 1 0 0 Z " fill="#E7EAED" transform="translate(430,313)"/>
<path d="M0 0 C1.32 0.33 2.64 0.66 4 1 C3.01 2.98 2.02 4.96 1 7 C0.67 6.34 0.34 5.68 0 5 C-0.66 4.67 -1.32 4.34 -2 4 C-1.34 2.68 -0.68 1.36 0 0 Z " fill="#1F2634" transform="translate(322,728)"/>
<path d="M0 0 C0.66 0 1.32 0 2 0 C3.6875 2.3125 3.6875 2.3125 5 5 C4.67 5.99 4.34 6.98 4 8 C3.01 7.67 2.02 7.34 1 7 C1.33 5.68 1.66 4.36 2 3 C1.34 3 0.68 3 0 3 C0 2.01 0 1.02 0 0 Z " fill="#252B39" transform="translate(715,692)"/>
<path d="M0 0 C0.82810826 3.31243305 1.09278428 5.65976579 1 9 C-0.32 9.33 -1.64 9.66 -3 10 C-2.01 6.7 -1.02 3.4 0 0 Z " fill="#2B3241" transform="translate(733,525)"/>
<path d="M0 0 C0.66 0.99 1.32 1.98 2 3 C0.625 5.5 0.625 5.5 -1 8 C-1.66 8 -2.32 8 -3 8 C-3 8.66 -3 9.32 -3 10 C-3.66 9.67 -4.32 9.34 -5 9 C-3.35 6.03 -1.7 3.06 0 0 Z " fill="#262D3C" transform="translate(321,505)"/>
<path d="M0 0 C1.32 0 2.64 0 4 0 C4 0.66 4 1.32 4 2 C3.34 2 2.68 2 2 2 C2 3.65 2 5.3 2 7 C1.67 6.34 1.34 5.68 1 5 C0.01 4.67 -0.98 4.34 -2 4 C-1.34 2.68 -0.68 1.36 0 0 Z " fill="#1C2434" transform="translate(444,294)"/>
<path d="M0 0 C0.66 0 1.32 0 2 0 C2.33 2.31 2.66 4.62 3 7 C2.01 7.495 2.01 7.495 1 8 C-1.125 3.375 -1.125 3.375 0 0 Z " fill="#1D2536" transform="translate(693,715)"/>
<path d="M0 0 C1.32 0.33 2.64 0.66 4 1 C2.6875 3 2.6875 3 1 5 C0.01 5 -0.98 5 -2 5 C-1.34 3.35 -0.68 1.7 0 0 Z " fill="#202737" transform="translate(248,628)"/>
<path d="M0 0 C2.97 0.495 2.97 0.495 6 1 C3.61426621 2.89213369 1.92824652 4.02391783 -1 5 C-0.67 3.35 -0.34 1.7 0 0 Z " fill="#1E2532" transform="translate(331,585)"/>
<path d="M0 0 C4 4.75 4 4.75 4 7 C2.0625 6.6875 2.0625 6.6875 0 6 C-1 3 -1 3 0 0 Z " fill="#232A38" transform="translate(612,514)"/>
<path d="M0 0 C2.99324263 1.0975223 3.84610901 1.67682892 5.25 4.625 C5.4975 5.40875 5.745 6.1925 6 7 C3.11424181 6.60196439 2.17810487 6.20990931 0.25 3.9375 C-0.1625 3.298125 -0.575 2.65875 -1 2 C-0.67 1.34 -0.34 0.68 0 0 Z " fill="#202735" transform="translate(586,472)"/>
<path d="M0 0 C0.99 0.33 1.98 0.66 3 1 C2.34 1 1.68 1 1 1 C1.99 2.98 2.98 4.96 4 7 C2.68 6.67 1.36 6.34 0 6 C0 5.01 0 4.02 0 3 C-0.66 3 -1.32 3 -2 3 C-1 1 -1 1 0 0 Z " fill="#1C2434" transform="translate(627,376)"/>
<path d="M0 0 C1.9375 0.3125 1.9375 0.3125 4 1 C4.33 1.99 4.66 2.98 5 4 C4.01 5.485 4.01 5.485 3 7 C0 2.25 0 2.25 0 0 Z " fill="#222837" transform="translate(568,341)"/>
<path d="M0 0 C0.66 0 1.32 0 2 0 C2.66 1.65 3.32 3.3 4 5 C0 5 0 5 -2 4 C-1.34 2.68 -0.68 1.36 0 0 Z " fill="#232A36" transform="translate(511,341)"/>
<path d="M0 0 C4 4.75 4 4.75 4 7 C2.68 6.67 1.36 6.34 0 6 C-1.125 2.25 -1.125 2.25 0 0 Z " fill="#262E3C" transform="translate(566,272)"/>
<path d="M0 0 C0.66 0.33 1.32 0.66 2 1 C1.75 2.875 1.75 2.875 1 5 C-1.0625 6.25 -1.0625 6.25 -3 7 C-1.125 2.25 -1.125 2.25 0 0 Z " fill="#232939" transform="translate(199,712)"/>
<path d="M0 0 C0.66 0.33 1.32 0.66 2 1 C0.68 3.31 -0.64 5.62 -2 8 C-2.93423645 4.98968256 -3.04449911 4.13349732 -2 1 C-1.34 0.67 -0.68 0.34 0 0 Z " fill="#212835" transform="translate(244,699)"/>
<path d="M0 0 C0.99 0.33 1.98 0.66 3 1 C2.34 2.32 1.68 3.64 1 5 C0.01 5 -0.98 5 -2 5 C-2.33 3.68 -2.66 2.36 -3 1 C-2.01 1.33 -1.02 1.66 0 2 C0 1.34 0 0.68 0 0 Z " fill="#1E2535" transform="translate(361,662)"/>
<path d="M0 0 C1.42944945 2.35438733 2.08661261 3.48032433 1.625 6.25 C1.41875 6.8275 1.2125 7.405 1 8 C0.34 8 -0.32 8 -1 8 C-1 7.34 -1 6.68 -1 6 C-1.66 5.67 -2.32 5.34 -3 5 C-2.01 3.35 -1.02 1.7 0 0 Z " fill="#1D2434" transform="translate(353,614)"/>
<path d="M0 0 C2 2 2 2 2 5 C1.01 5 0.02 5 -1 5 C-1 5.66 -1 6.32 -1 7 C-1.66 7 -2.32 7 -3 7 C-1.125 2.25 -1.125 2.25 0 0 Z M2 1 C4 2 4 2 4 2 Z " fill="#1E2635" transform="translate(415,507)"/>
<path d="M0 0 C0.66 0.33 1.32 0.66 2 1 C1.34 2.98 0.68 4.96 0 7 C-0.99 6.67 -1.98 6.34 -3 6 C-3 3 -3 3 -1.5 1.3125 C-0.7575 0.6628125 -0.7575 0.6628125 0 0 Z " fill="#EBEEF1" transform="translate(338,471)"/>
<path d="M0 0 C0.88492145 2.47778006 1.11637742 3.66056586 0.25 6.1875 C-1 8 -1 8 -4 9 C-2.80100302 5.9168649 -1.52299523 2.93720508 0 0 Z " fill="#252E3D" transform="translate(356,445)"/>
<path d="M0 0 C1.98 0.66 3.96 1.32 6 2 C5.34 2.66 4.68 3.32 4 4 C3.34 3.67 2.68 3.34 2 3 C1.67 3.66 1.34 4.32 1 5 C0.01 4.34 -0.98 3.68 -2 3 C-1.34 3 -0.68 3 0 3 C0 2.01 0 1.02 0 0 Z " fill="#1B2333" transform="translate(686,358)"/>
<path d="M0 0 C0.33 0.66 0.66 1.32 1 2 C0.125 3.9375 0.125 3.9375 -1 6 C-1.33 6.99 -1.66 7.98 -2 9 C-2.33 6.69 -2.66 4.38 -3 2 C-2.01 1.34 -1.02 0.68 0 0 Z " fill="#192132" transform="translate(409,357)"/>
<path d="M0 0 C0.66 0.33 1.32 0.66 2 1 C2 2.32 2 3.64 2 5 C1.01 5.33 0.02 5.66 -1 6 C-1.66 4.68 -2.32 3.36 -3 2 C-2.01 1.34 -1.02 0.68 0 0 Z " fill="#1A2232" transform="translate(799,728)"/>
<path d="M0 0 C-1.07401108 2.91517292 -1.77810176 4.77810176 -4 7 C-4.6875 5.1875 -4.6875 5.1875 -5 3 C-3.38441968 0.84589291 -2.74502455 0 0 0 Z " fill="#222835" transform="translate(255,683)"/>
<path d="M0 0 C0.99 0.33 1.98 0.66 3 1 C1.68 2.32 0.36 3.64 -1 5 C-1.99 4.34 -2.98 3.68 -4 3 C-3.34 3 -2.68 3 -2 3 C-2 2.34 -2 1.68 -2 1 C-1.34 0.67 -0.68 0.34 0 0 Z " fill="#1F2736" transform="translate(295,615)"/>
<path d="M0 0 C0.66 1.32 1.32 2.64 2 4 C0.68 5.32 -0.64 6.64 -2 8 C-2.66 7.67 -3.32 7.34 -4 7 C-2.68 4.69 -1.36 2.38 0 0 Z " fill="#3C4047" transform="translate(303,536)"/>
<path d="M0 0 C0.99 0 1.98 0 3 0 C2.34 2.64 1.68 5.28 1 8 C0.34 7.67 -0.32 7.34 -1 7 C-0.67 4.69 -0.34 2.38 0 0 Z " fill="#1F2636" transform="translate(764,532)"/>
<path d="M0 0 C0.66 0 1.32 0 2 0 C1.67 2.97 1.34 5.94 1 9 C-1.08954032 4.82091936 -1.16552619 4.19589427 0 0 Z " fill="#212735" transform="translate(770,510)"/>
<path d="M0 0 C0.66 0.33 1.32 0.66 2 1 C1.34 2.98 0.68 4.96 0 7 C-1.5 5.625 -1.5 5.625 -3 4 C-3 3.34 -3 2.68 -3 2 C-2.01 2 -1.02 2 0 2 C0 1.34 0 0.68 0 0 Z " fill="#1D2334" transform="translate(657,486)"/>
</svg>
